<svg width="55" height="33" viewBox="0 0 55 33" fill="none" xmlns="http://www.w3.org/2000/svg">
<path d="M36.9036 8.81632V23.8367C36.9036 26.7233 32.8679 29.0612 27.8853 29.0612C22.9027 29.0612 18.867 26.7233 18.867 23.8367V7.5102C18.867 5.70775 21.3921 4.24489 24.5034 4.24489C27.6147 4.24489 30.1398 5.70775 30.1398 7.5102V21.2245C30.1398 21.9428 29.1253 22.5306 27.8853 22.5306C26.6453 22.5306 25.6307 21.9428 25.6307 21.2245V8.81632H22.2488V21.2245C22.2488 23.0269 24.774 24.4898 27.8853 24.4898C30.9966 24.4898 33.5217 23.0269 33.5217 21.2245V7.5102C33.5217 4.62366 29.486 2.28571 24.5034 2.28571C19.5208 2.28571 15.4851 4.62366 15.4851 7.5102V23.8367C15.4851 27.8073 21.0314 31.0204 27.8853 31.0204C34.7392 31.0204 40.2854 27.8073 40.2854 23.8367V8.81632H36.9036Z" fill="black" fill-opacity="0.54"/>
</svg>
