<svg width="42" height="40" viewBox="0 0 42 40" fill="none" xmlns="http://www.w3.org/2000/svg">
<path fill-rule="evenodd" clip-rule="evenodd" d="M26.8867 18C26.7442 17.9994 26.6118 17.9269 26.5325 17.8101C26.523 17.7647 26.5088 17.7202 26.4899 17.6775C26.4184 17.5154 26.4527 17.3261 26.5766 17.1995L26.6114 17.1647C26.9867 16.7899 27.1977 16.2808 27.1977 15.75C27.1977 15.2192 26.9867 14.7101 26.6111 14.335C26.2365 13.96 25.7275 13.749 25.1967 13.749C24.6658 13.749 24.1568 13.96 23.7817 14.3355L23.7419 14.3753C23.6205 14.494 23.4312 14.5283 23.2692 14.4568C23.1039 14.3859 23.0007 14.2301 23 14.0573L23 14C23 12.8954 22.1046 12 21 12C19.8954 12 19 12.8954 19 14V14.1133C18.9994 14.2558 18.9269 14.3882 18.8101 14.4675C18.7647 14.477 18.7202 14.4912 18.6775 14.5101C18.5154 14.5816 18.3261 14.5473 18.1995 14.4234L18.1647 14.3886C17.7899 14.0133 17.2808 13.8023 16.75 13.8023C16.2192 13.8023 15.7101 14.0133 15.335 14.3889C14.96 14.7635 14.749 15.2725 14.749 15.8033C14.749 16.3342 14.96 16.8432 15.3355 17.2183L15.3753 17.2581C15.494 17.3795 15.5283 17.5688 15.4568 17.7308C15.3796 17.9369 15.2223 18.0494 15 18.0533C13.8954 18.0533 13 18.9488 13 20.0533C13 21.1579 13.8954 22.0533 15 22.0533H15.1133C15.2834 22.054 15.4392 22.1572 15.5072 22.316C15.5816 22.4846 15.5473 22.6739 15.4234 22.8005L15.3886 22.8353C15.0133 23.2101 14.8023 23.7192 14.8023 24.25C14.8023 24.7808 15.0133 25.2899 15.3889 25.665C15.7635 26.04 16.2725 26.251 16.8033 26.251C17.3342 26.251 17.8432 26.04 18.2183 25.6645L18.2581 25.6247C18.3795 25.506 18.5688 25.4717 18.7308 25.5432C18.9369 25.6204 19.0494 25.7777 19.0533 26C19.0533 27.1046 19.9488 28 21.0533 28C22.1579 28 23.0533 27.1046 23.0533 26V25.8867C23.054 25.7166 23.1572 25.5608 23.316 25.4928C23.4846 25.4184 23.6739 25.4527 23.8005 25.5766L23.8353 25.6114C24.2101 25.9867 24.7192 26.1977 25.25 26.1977C25.7808 26.1977 26.2899 25.9867 26.665 25.6111C27.04 25.2365 27.251 24.7275 27.251 24.1967C27.251 23.6658 27.04 23.1568 26.6645 22.7817L26.6247 22.7419C26.506 22.6205 26.4717 22.4312 26.5461 22.2626C26.6141 22.1039 26.7699 22.0007 26.9427 22L27 22C28.1046 22 29 21.1046 29 20C29 18.8954 28.1046 18 27 18H26.8867ZM17.2618 15.3714C17.7497 15.8486 18.4564 16.0019 19.0864 15.781C19.1469 15.7731 19.2062 15.7569 19.2625 15.7327C19.9098 15.4554 20.3304 14.8201 20.3332 14.116L20.3333 14C20.3333 13.6318 20.6317 13.3333 20.9999 13.3333C21.3681 13.3333 21.6666 13.6318 21.6666 14V14.06C21.6694 14.7668 22.0901 15.402 22.7373 15.6794C23.3915 15.9682 24.1631 15.8282 24.6794 15.3232L24.7247 15.2781C24.85 15.1526 25.0196 15.0823 25.1966 15.0823C25.3735 15.0823 25.5432 15.1526 25.6683 15.2778C25.794 15.4034 25.8643 15.573 25.8643 15.75C25.8643 15.9269 25.794 16.0966 25.6688 16.2216L25.6285 16.2619C25.1513 16.7497 24.998 17.4565 25.2189 18.0865C25.2268 18.147 25.243 18.2063 25.2672 18.2626C25.5445 18.9098 26.1798 19.3305 26.8839 19.3333L26.9999 19.3333C27.3681 19.3333 27.6666 19.6318 27.6666 20C27.6666 20.3682 27.3681 20.6666 26.9999 20.6666H26.9399C26.2331 20.6695 25.5979 21.0901 25.3233 21.7308C25.0317 22.3915 25.1717 23.1632 25.6767 23.6795L25.7218 23.7247C25.8473 23.85 25.9176 24.0197 25.9176 24.1966C25.9176 24.3736 25.8473 24.5433 25.7221 24.6683C25.5965 24.794 25.4269 24.8644 25.2499 24.8644C25.073 24.8644 24.9033 24.794 24.7783 24.6688L24.738 24.6286C24.2165 24.1184 23.4448 23.9785 22.7841 24.2701C22.1434 24.5446 21.7227 25.1798 21.7199 25.884L21.7199 26C21.7199 26.3682 21.4214 26.6666 21.0533 26.6666C20.6851 26.6666 20.3866 26.3682 20.3866 26V25.94C20.3694 25.1992 19.9109 24.558 19.23 24.3076C18.6084 24.0318 17.8367 24.1717 17.3204 24.6767L17.2752 24.7219C17.1499 24.8474 16.9802 24.9177 16.8033 24.9177C16.6263 24.9177 16.4566 24.8474 16.3316 24.7222C16.2059 24.5966 16.1355 24.4269 16.1355 24.25C16.1355 24.073 16.2059 23.9034 16.3311 23.7783L16.3713 23.7381C16.8815 23.2165 17.0214 22.4449 16.7298 21.7841C16.4553 21.1435 15.8201 20.7228 15.1159 20.72L14.9999 20.72C14.6317 20.72 14.3333 20.4215 14.3333 20.0533C14.3333 19.6851 14.6317 19.3866 14.9999 19.3866H15.0599C15.8007 19.3695 16.4419 18.9109 16.6923 18.2301C16.9681 17.6084 16.8282 16.8368 16.3232 16.3205L16.278 16.2752C16.1525 16.1499 16.0822 15.9803 16.0822 15.8033C16.0822 15.6264 16.1525 15.4567 16.2777 15.3316C16.4033 15.2059 16.573 15.1356 16.7499 15.1356C16.9269 15.1356 17.0965 15.2059 17.2216 15.3311L17.2618 15.3714ZM20.9999 22.6666C19.5272 22.6666 18.3333 21.4727 18.3333 20C18.3333 18.5272 19.5272 17.3333 20.9999 17.3333C22.4727 17.3333 23.6666 18.5272 23.6666 20C23.6666 21.4727 22.4727 22.6666 20.9999 22.6666ZM22.3334 20C22.3334 20.7364 21.7365 21.3334 21.0001 21.3334C20.2637 21.3334 19.6667 20.7364 19.6667 20C19.6667 19.2636 20.2637 18.6667 21.0001 18.6667C21.7365 18.6667 22.3334 19.2636 22.3334 20Z" fill="white"/>
<mask id="mask0_1_2429" style="mask-type:luminance" maskUnits="userSpaceOnUse" x="13" y="12" width="16" height="16">
<path fill-rule="evenodd" clip-rule="evenodd" d="M26.8867 18C26.7442 17.9994 26.6118 17.9269 26.5325 17.8101C26.523 17.7647 26.5088 17.7202 26.4899 17.6775C26.4184 17.5154 26.4527 17.3261 26.5766 17.1995L26.6114 17.1647C26.9867 16.7899 27.1977 16.2808 27.1977 15.75C27.1977 15.2192 26.9867 14.7101 26.6111 14.335C26.2365 13.96 25.7275 13.749 25.1967 13.749C24.6658 13.749 24.1568 13.96 23.7817 14.3355L23.7419 14.3753C23.6205 14.494 23.4312 14.5283 23.2692 14.4568C23.1039 14.3859 23.0007 14.2301 23 14.0573L23 14C23 12.8954 22.1046 12 21 12C19.8954 12 19 12.8954 19 14V14.1133C18.9994 14.2558 18.9269 14.3882 18.8101 14.4675C18.7647 14.477 18.7202 14.4912 18.6775 14.5101C18.5154 14.5816 18.3261 14.5473 18.1995 14.4234L18.1647 14.3886C17.7899 14.0133 17.2808 13.8023 16.75 13.8023C16.2192 13.8023 15.7101 14.0133 15.335 14.3889C14.96 14.7635 14.749 15.2725 14.749 15.8033C14.749 16.3342 14.96 16.8432 15.3355 17.2183L15.3753 17.2581C15.494 17.3795 15.5283 17.5688 15.4568 17.7308C15.3796 17.9369 15.2223 18.0494 15 18.0533C13.8954 18.0533 13 18.9488 13 20.0533C13 21.1579 13.8954 22.0533 15 22.0533H15.1133C15.2834 22.054 15.4392 22.1572 15.5072 22.316C15.5816 22.4846 15.5473 22.6739 15.4234 22.8005L15.3886 22.8353C15.0133 23.2101 14.8023 23.7192 14.8023 24.25C14.8023 24.7808 15.0133 25.2899 15.3889 25.665C15.7635 26.04 16.2725 26.251 16.8033 26.251C17.3342 26.251 17.8432 26.04 18.2183 25.6645L18.2581 25.6247C18.3795 25.506 18.5688 25.4717 18.7308 25.5432C18.9369 25.6204 19.0494 25.7777 19.0533 26C19.0533 27.1046 19.9488 28 21.0533 28C22.1579 28 23.0533 27.1046 23.0533 26V25.8867C23.054 25.7166 23.1572 25.5608 23.316 25.4928C23.4846 25.4184 23.6739 25.4527 23.8005 25.5766L23.8353 25.6114C24.2101 25.9867 24.7192 26.1977 25.25 26.1977C25.7808 26.1977 26.2899 25.9867 26.665 25.6111C27.04 25.2365 27.251 24.7275 27.251 24.1967C27.251 23.6658 27.04 23.1568 26.6645 22.7817L26.6247 22.7419C26.506 22.6205 26.4717 22.4312 26.5461 22.2626C26.6141 22.1039 26.7699 22.0007 26.9427 22L27 22C28.1046 22 29 21.1046 29 20C29 18.8954 28.1046 18 27 18H26.8867ZM17.2618 15.3714C17.7497 15.8486 18.4564 16.0019 19.0864 15.781C19.1469 15.7731 19.2062 15.7569 19.2625 15.7327C19.9098 15.4554 20.3304 14.8201 20.3332 14.116L20.3333 14C20.3333 13.6318 20.6317 13.3333 20.9999 13.3333C21.3681 13.3333 21.6666 13.6318 21.6666 14V14.06C21.6694 14.7668 22.0901 15.402 22.7373 15.6794C23.3915 15.9682 24.1631 15.8282 24.6794 15.3232L24.7247 15.2781C24.85 15.1526 25.0196 15.0823 25.1966 15.0823C25.3735 15.0823 25.5432 15.1526 25.6683 15.2778C25.794 15.4034 25.8643 15.573 25.8643 15.75C25.8643 15.9269 25.794 16.0966 25.6688 16.2216L25.6285 16.2619C25.1513 16.7497 24.998 17.4565 25.2189 18.0865C25.2268 18.147 25.243 18.2063 25.2672 18.2626C25.5445 18.9098 26.1798 19.3305 26.8839 19.3333L26.9999 19.3333C27.3681 19.3333 27.6666 19.6318 27.6666 20C27.6666 20.3682 27.3681 20.6666 26.9999 20.6666H26.9399C26.2331 20.6695 25.5979 21.0901 25.3233 21.7308C25.0317 22.3915 25.1717 23.1632 25.6767 23.6795L25.7218 23.7247C25.8473 23.85 25.9176 24.0197 25.9176 24.1966C25.9176 24.3736 25.8473 24.5433 25.7221 24.6683C25.5965 24.794 25.4269 24.8644 25.2499 24.8644C25.073 24.8644 24.9033 24.794 24.7783 24.6688L24.738 24.6286C24.2165 24.1184 23.4448 23.9785 22.7841 24.2701C22.1434 24.5446 21.7227 25.1798 21.7199 25.884L21.7199 26C21.7199 26.3682 21.4214 26.6666 21.0533 26.6666C20.6851 26.6666 20.3866 26.3682 20.3866 26V25.94C20.3694 25.1992 19.9109 24.558 19.23 24.3076C18.6084 24.0318 17.8367 24.1717 17.3204 24.6767L17.2752 24.7219C17.1499 24.8474 16.9802 24.9177 16.8033 24.9177C16.6263 24.9177 16.4566 24.8474 16.3316 24.7222C16.2059 24.5966 16.1355 24.4269 16.1355 24.25C16.1355 24.073 16.2059 23.9034 16.3311 23.7783L16.3713 23.7381C16.8815 23.2165 17.0214 22.4449 16.7298 21.7841C16.4553 21.1435 15.8201 20.7228 15.1159 20.72L14.9999 20.72C14.6317 20.72 14.3333 20.4215 14.3333 20.0533C14.3333 19.6851 14.6317 19.3866 14.9999 19.3866H15.0599C15.8007 19.3695 16.4419 18.9109 16.6923 18.2301C16.9681 17.6084 16.8282 16.8368 16.3232 16.3205L16.278 16.2752C16.1525 16.1499 16.0822 15.9803 16.0822 15.8033C16.0822 15.6264 16.1525 15.4567 16.2777 15.3316C16.4033 15.2059 16.573 15.1356 16.7499 15.1356C16.9269 15.1356 17.0965 15.2059 17.2216 15.3311L17.2618 15.3714ZM20.9999 22.6666C19.5272 22.6666 18.3333 21.4727 18.3333 20C18.3333 18.5272 19.5272 17.3333 20.9999 17.3333C22.4727 17.3333 23.6666 18.5272 23.6666 20C23.6666 21.4727 22.4727 22.6666 20.9999 22.6666ZM22.3334 20C22.3334 20.7364 21.7365 21.3334 21.0001 21.3334C20.2637 21.3334 19.6667 20.7364 19.6667 20C19.6667 19.2636 20.2637 18.6667 21.0001 18.6667C21.7365 18.6667 22.3334 19.2636 22.3334 20Z" fill="white"/>
</mask>
<g mask="url(#mask0_1_2429)">
<rect width="16" height="16" transform="translate(13 12)" fill="#343434" fill-opacity="0.5"/>
</g>
</svg>
