<svg width="233" height="24" viewBox="0 0 233 24" fill="none" xmlns="http://www.w3.org/2000/svg">
<path fill-rule="evenodd" clip-rule="evenodd" d="M14.6667 5.33334C13.9334 5.33334 13.34 5.93334 13.34 6.66668L13.3334 18.6667L16 16H25.3334C26.0667 16 26.6667 15.4 26.6667 14.6667V6.66668C26.6667 5.93334 26.0667 5.33334 25.3334 5.33334H14.6667ZM14.6667 6.66668H25.3334V14.6667H15.4467L14.6667 15.4467V6.66668ZM24 12H16V13.3333H24V12ZM16 10H24V11.3333H16V10ZM24 8.00001H16V9.33334H24V8.00001Z" fill="black" fill-opacity="0.54"/>
<path fill-rule="evenodd" clip-rule="evenodd" d="M42.6667 5.33334C41.9334 5.33334 41.34 5.93334 41.34 6.66668L41.3334 18.6667L44 16H53.3334C54.0667 16 54.6667 15.4 54.6667 14.6667V6.66668C54.6667 5.93334 54.0667 5.33334 53.3334 5.33334H42.6667ZM42.6667 6.66668H53.3334V14.6667H43.4467L42.6667 15.4467V6.66668ZM52 12H44V13.3333H52V12ZM44 10H52V11.3333H44V10ZM52 8.00001H44V9.33334H52V8.00001Z" fill="black" fill-opacity="0.54"/>
</svg>
